<svg viewBox="0 0 40 40" xmlns="http://www.w3.org/2000/svg" xmlns:xlink="http://www.w3.org/1999/xlink"><style>:root&gt;svg{display:none}:root&gt;svg:target{display:block}</style><svg fill="none" viewBox="0 0 20 20" id="css--arrow" xmlns="http://www.w3.org/2000/svg"><path fill-rule="evenodd" clip-rule="evenodd" d="M10.707 3.46a1 1 0 010 1.415L6.581 9h9.252a1 1 0 110 2H6.581l4.126 4.126a1 1 0 01-1.414 1.414L3.46 10.708a1 1 0 010-1.414L9.293 3.46a1 1 0 011.414 0z" fill="#516173"/></svg><svg fill="none" viewBox="0 0 32 32" id="css--book-icon" xmlns="http://www.w3.org/2000/svg"><path fill-rule="evenodd" clip-rule="evenodd" d="M7.017 4.35a2.333 2.333 0 011.65-.683h17v18.057a.997.997 0 00-.334-.057H8.667c-.834 0-1.642.24-2.334.681V6c0-.619.246-1.212.684-1.65zM6.333 26a2.333 2.333 0 002.334 2.333H24.39a1 1 0 01-.058-.334v-4a1 1 0 01.057-.332H8.667A2.333 2.333 0 006.333 26zm-2 0a4.333 4.333 0 004.334 4.333h18a1 1 0 00.707-1.706l-1.04-1.042v-3.172l1.04-1.04a1 1 0 00.293-.708V2.667a1 1 0 00-1-1h-18A4.333 4.333 0 004.333 6v20z" fill="#fff"/></svg><svg fill="none" viewBox="0 0 20 21" id="css--buttonArrows" xmlns="http://www.w3.org/2000/svg"><path fill-rule="evenodd" clip-rule="evenodd" d="M12.5 1.502a1 1 0 100 2h2.586L10.96 7.628a1 1 0 101.414 1.414L16.5 4.916v2.586a1 1 0 102 0v-5a1 1 0 00-1-1h-5zM9.04 12.376a1 1 0 10-1.414-1.414L3.5 15.088v-2.586a1 1 0 10-2 0v5a1 1 0 001 1h5a1 1 0 100-2H4.914l4.126-4.126z" fill="#516173"/></svg><svg fill="none" viewBox="0 0 40 40" id="css--buttonPlus" xmlns="http://www.w3.org/2000/svg"><rect width="40" height="40" rx="20" fill="#3A9EFF"/><g filter="url(#adfilter0_d_6_133433)"><path fill-rule="evenodd" clip-rule="evenodd" d="M21 13a1 1 0 10-2 0v6h-6a1 1 0 100 2h6v6a1 1 0 102 0v-6h6a1 1 0 100-2h-6v-6z" fill="#fff"/></g><defs><filter id="adfilter0_d_6_133433" x="8" y="8" width="24" height="25" filterUnits="userSpaceOnUse" color-interpolation-filters="sRGB"><feFlood flood-opacity="0" result="BackgroundImageFix"/><feColorMatrix in="SourceAlpha" values="0 0 0 0 0 0 0 0 0 0 0 0 0 0 0 0 0 0 127 0" result="hardAlpha"/><feOffset dy="1"/><feColorMatrix values="0 0 0 0 0 0 0 0 0 0 0 0 0 0 0 0 0 0 0.1 0"/><feBlend in2="BackgroundImageFix" result="effect1_dropShadow_6_133433"/><feBlend in="SourceGraphic" in2="effect1_dropShadow_6_133433" result="shape"/></filter></defs></svg><svg fill="none" viewBox="0 0 24 24" id="css--calendarSrok" xmlns="http://www.w3.org/2000/svg"><path fill-rule="evenodd" clip-rule="evenodd" d="M16 1a1 1 0 011 1v.001h2a3 3 0 013 3v15a3 3 0 01-3 3H5a3 3 0 01-3-3v-15a3 3 0 013-3h2V2a1 1 0 012 0v.001h6V2a1 1 0 011-1zM7 4.001a1 1 0 002 0h6a1 1 0 002 0h2a1 1 0 011 1v2H4v-2a1 1 0 011-1h2zm-3 5h16v11a1 1 0 01-1 1H5a1 1 0 01-1-1v-11zM7 11a1 1 0 00-1 1v2a1 1 0 001 1h2a1 1 0 001-1v-2a1 1 0 00-1-1H7z" fill="#516173"/></svg><svg fill="none" viewBox="0 0 24 24" id="css--calendarStartFinish" xmlns="http://www.w3.org/2000/svg"><path fill-rule="evenodd" clip-rule="evenodd" d="M17 2a1 1 0 10-2 0v.001H9V2a1 1 0 00-2 0v.001H5a3 3 0 00-3 3v15a3 3 0 003 3h14a3 3 0 003-3v-15a3 3 0 00-3-3h-2V2zM8 5a1 1 0 01-1-.999H5a1 1 0 00-1 1v2h16v-2a1 1 0 00-1-1h-2a1 1 0 01-2 0H9A1 1 0 018 5zm12 4.001H4v11a1 1 0 001 1h14a1 1 0 001-1v-11zM6 16a1 1 0 011-1h3a1 1 0 011 1v2a1 1 0 01-1 1H7a1 1 0 01-1-1v-2zm7-5a1 1 0 00-1 1v2a1 1 0 001 1h4a1 1 0 001-1v-2a1 1 0 00-1-1h-4z" fill="#354052"/></svg><svg fill="none" viewBox="0 0 11 10" id="css--circle" xmlns="http://www.w3.org/2000/svg"><path fill-rule="evenodd" clip-rule="evenodd" d="M9.71 1.708A1 1 0 108.294.293L5.002 3.586 1.709.293A1 1 0 10.295 1.708L3.588 5 .295 8.293a1 1 0 101.414 1.415l3.293-3.293 3.293 3.293a1 1 0 001.414-1.415L6.416 5 9.71 1.708z" fill="#354052"/></svg><svg fill="none" viewBox="0 0 32 32" id="css--clock-icon" xmlns="http://www.w3.org/2000/svg"><path fill-rule="evenodd" clip-rule="evenodd" d="M13.55 3.665c-.27 0-.55.237-.55.608 0 .244.105.464.632.714.505.24 1.144.378 1.816.523l.21.046c.218.047.448.046.672-.005l.308-.07c.644-.143 1.246-.278 1.732-.507.53-.25.63-.466.63-.701 0-.37-.28-.608-.55-.608h-4.9zM11 4.273c0-1.405 1.107-2.608 2.55-2.608h4.9c1.443 0 2.55 1.203 2.55 2.608 0 1.36-.93 2.112-1.777 2.51a7.208 7.208 0 01-1.126.404 11.62 11.62 0 015.416 2.552l2.53-2.524-1.172-1.178a1 1 0 111.417-1.41l1.877 1.885 1.877 1.886a1 1 0 11-1.417 1.41l-1.171-1.175-2.527 2.52a11.62 11.62 0 012.74 7.512c0 6.444-5.224 11.667-11.667 11.667S4.333 25.109 4.333 18.665c0-5.717 4.112-10.473 9.54-11.473a6.986 6.986 0 01-1.1-.398C11.925 6.39 11 5.63 11 4.273zM6.333 18.665C6.333 13.327 10.661 9 16 9a9.667 9.667 0 110 19.333 9.667 9.667 0 01-9.667-9.667zM16 14.332a4.333 4.333 0 013.09 7.372 1 1 0 101.425 1.403A6.333 6.333 0 0016 12.332v2z" fill="#fff"/></svg><svg fill="none" viewBox="0 0 25 25" id="css--cloud" xmlns="http://www.w3.org/2000/svg"><path fill-rule="evenodd" clip-rule="evenodd" d="M9.082.049c4.09-.417 8.026 2.109 9.396 5.953h.523c2.81.003 5.292 2.023 5.866 4.774.575 2.75-.892 5.595-3.466 6.722a1 1 0 11-.802-1.832c1.707-.748 2.692-2.657 2.31-4.482-.38-1.824-2.046-3.18-3.91-3.182H17.74a1 1 0 01-.968-.75c-.852-3.3-4.116-5.557-7.487-5.214-3.37.343-6.113 3.212-6.282 6.616a7.062 7.062 0 002.621 5.817 1 1 0 11-1.248 1.562 9.061 9.061 0 01-3.37-7.478C1.223 4.16 4.731.49 9.081.049zM9 15.002a1 1 0 100 2h.01a1 1 0 100-2H9zm-1 5a1 1 0 011-1h.01a1 1 0 110 2H9a1 1 0 01-1-1zm5-3a1 1 0 100 2h.01a1 1 0 100-2H13zm-1 5a1 1 0 011-1h.01a1 1 0 110 2H13a1 1 0 01-1-1zm1-9a1 1 0 000 2h.01a1 1 0 100-2H13zm3 3a1 1 0 011-1h.01a1 1 0 110 2H17a1 1 0 01-1-1zm1 3a1 1 0 100 2h.01a1 1 0 100-2H17z" fill="#0085F0"/></svg><svg fill="none" viewBox="0 0 24 24" id="css--compass" xmlns="http://www.w3.org/2000/svg"><path fill-rule="evenodd" clip-rule="evenodd" d="M3 12a9 9 0 1118 0 9 9 0 01-18 0zm9-11C5.925 1 1 5.925 1 12s4.925 11 11 11 11-4.925 11-11S18.075 1 12 1zm5.189 7.076a1 1 0 00-1.265-1.265l-6.36 2.12a1 1 0 00-.633.633l-2.12 6.36a1 1 0 001.265 1.265l6.36-2.12a1 1 0 00.633-.633l2.12-6.36zM9.34 14.66l1.33-3.988 3.988-1.33-1.33 3.988-3.988 1.33z" fill="#7F8FA4"/></svg><svg fill="none" viewBox="0 0 20 21" id="css--complete-icon" xmlns="http://www.w3.org/2000/svg"><rect y=".002" width="20" height="20" rx="3" fill="url(#akpaint0_linear_1607_101491)"/><g filter="url(#akfilter0_d_1607_101491)"><path fill-rule="evenodd" clip-rule="evenodd" d="M5.098 5.1a.333.333 0 01.235-.098h7.334a1 1 0 100-2H5.333A2.333 2.333 0 003 5.335v9.333a2.333 2.333 0 002.333 2.334h9.334A2.333 2.333 0 0017 14.668v-4.666a1 1 0 10-2 0v4.666a.333.333 0 01-.333.334H5.333A.333.333 0 015 14.668V5.335c0-.088.035-.173.098-.236zm12.276.275a1 1 0 00-1.414-1.414L10 9.921 8.707 8.628a1 1 0 00-1.414 1.414l2 2a1 1 0 001.414 0l6.667-6.667z" fill="#fff"/></g><defs><linearGradient id="akpaint0_linear_1607_101491" x1="10" y1=".001" x2="10" y2="20.002" gradientUnits="userSpaceOnUse"><stop stop-color="#3A9EFF"/><stop offset="1" stop-color="#1F8EFA"/></linearGradient><filter id="akfilter0_d_1607_101491" x="2" y="2.002" width="16" height="17" filterUnits="userSpaceOnUse" color-interpolation-filters="sRGB"><feFlood flood-opacity="0" result="BackgroundImageFix"/><feColorMatrix in="SourceAlpha" values="0 0 0 0 0 0 0 0 0 0 0 0 0 0 0 0 0 0 127 0" result="hardAlpha"/><feOffset dy="1"/><feColorMatrix values="0 0 0 0 0.109804 0 0 0 0 0.109804 0 0 0 0 0.109804 0 0 0 0.1 0"/><feBlend in2="BackgroundImageFix" result="effect1_dropShadow_1607_101491"/><feBlend in="SourceGraphic" in2="effect1_dropShadow_1607_101491" result="shape"/></filter></defs></svg><svg fill="none" viewBox="0 0 20 20" id="css--cross" xmlns="http://www.w3.org/2000/svg"><path fill-rule="evenodd" clip-rule="evenodd" d="M15.707 5.707a1 1 0 00-1.414-1.414L10 8.586 5.707 4.293a1 1 0 00-1.414 1.414L8.586 10l-4.293 4.293a1 1 0 101.414 1.414L10 11.414l4.293 4.293a1 1 0 001.414-1.414L11.414 10l4.293-4.293z" fill="#516173"/></svg><svg fill="none" viewBox="0 0 20 21" id="css--crossCircle" xmlns="http://www.w3.org/2000/svg"><path fill-rule="evenodd" clip-rule="evenodd" d="M10 2.669a7.333 7.333 0 100 14.666A7.333 7.333 0 0010 2.67zM.667 10.002a9.333 9.333 0 1118.666 0 9.333 9.333 0 01-18.666 0zm12.54-3.207a1 1 0 010 1.414l-1.793 1.793 1.793 1.793a1 1 0 01-1.414 1.414L10 11.416 8.207 13.21a1 1 0 01-1.414-1.414l1.793-1.793L6.793 8.21a1 1 0 011.414-1.414L10 8.588l1.793-1.793a1 1 0 011.414 0z" fill="#516173"/></svg><svg fill="none" viewBox="0 0 16 16" id="css--edit" xmlns="http://www.w3.org/2000/svg"><path fill-rule="evenodd" clip-rule="evenodd" d="M11.707 3.04a.414.414 0 01.586.586l-8.138 8.138-.78.195.195-.781 8.137-8.138zM12 .92c-.64 0-1.254.253-1.707.706L1.96 9.96a1 1 0 00-.263.464l-.667 2.667a1 1 0 001.213 1.213l2.666-.667a1 1 0 00.465-.263l8.333-8.334A2.415 2.415 0 0012 .92zM8 12.332a1 1 0 100 2h6a1 1 0 100-2H8z" fill="#7F8FA4"/></svg><svg fill="none" viewBox="0 0 20 20" id="css--fastMessage" xmlns="http://www.w3.org/2000/svg"><path fill-rule="evenodd" clip-rule="evenodd" d="M17.707 2.293A1 1 0 0017 2H3a1 1 0 00-1 1v10a1 1 0 001 1h12a1 1 0 01.707.293L18 16.586V3a1 1 0 00-.293-.707zM17 0a3 3 0 013 3v16a1 1 0 01-1.707.707L14.586 16H3a3 3 0 01-3-3V3a3 3 0 013-3h14zM5.005 4.999a1 1 0 000 2H13a1 1 0 100-2H5.005zm-.005 4a1 1 0 000 2h4.005a1 1 0 100-2H5z" fill="#7F8FA4"/></svg><svg fill="none" viewBox="0 0 24 24" id="css--helpCircle" xmlns="http://www.w3.org/2000/svg"><path fill-rule="evenodd" clip-rule="evenodd" d="M12 1.999c-5.523 0-10 4.477-10 10s4.477 10 10 10 10-4.477 10-10-4.477-10-10-10zm-12 10c0-6.627 5.373-12 12-12s12 5.373 12 12-5.373 12-12 12-12-5.373-12-12zm12.407-4.956C10.854 6.77 9.444 7.62 8.94 9.01a1 1 0 01-1.88-.681c.836-2.309 3.188-3.695 5.691-3.258 1.151.202 2.229.667 3.022 1.514.806.861 1.227 2.018 1.227 3.417 0 1.877-1.433 3.137-2.515 3.837a10.761 10.761 0 01-2.23 1.09l-.043.015-.013.004-.005.002h-.002l-.296-.911.295.911a1 1 0 01-.617-1.902l.004-.001.025-.009a8.466 8.466 0 00.527-.207 8.763 8.763 0 001.268-.67C14.375 11.528 15 10.79 15 10.002c0-.98-.285-1.62-.687-2.05-.415-.443-1.048-.76-1.906-.91zM12 17a1 1 0 100 2h.01a1 1 0 100-2H12z" fill="#1F8EFA"/></svg><svg fill="none" viewBox="0 0 24 25" id="css--instagram" xmlns="http://www.w3.org/2000/svg"><g filter="url(#aqfilter0_d_1429_47772)"><path fill-rule="evenodd" clip-rule="evenodd" d="M7 3a4 4 0 00-4 4v10a4 4 0 004 4h10a4 4 0 004-4V7a4 4 0 00-4-4H7zM1 7a6 6 0 016-6h10a6 6 0 016 6v10a6 6 0 01-6 6H7a6 6 0 01-6-6V7zm11.483 1.99a3 3 0 10-.88 5.934 3 3 0 00.88-5.935zM9.74 7.518a5 5 0 114.606 8.876A5 5 0 019.74 7.519zM17.5 5.5a1 1 0 100 2h.01a1 1 0 100-2h-.01z" fill="#fff"/></g><defs><filter id="aqfilter0_d_1429_47772" x="0" y="0" width="24" height="25" filterUnits="userSpaceOnUse" color-interpolation-filters="sRGB"><feFlood flood-opacity="0" result="BackgroundImageFix"/><feColorMatrix in="SourceAlpha" values="0 0 0 0 0 0 0 0 0 0 0 0 0 0 0 0 0 0 127 0" result="hardAlpha"/><feOffset dy="1"/><feColorMatrix values="0 0 0 0 0.109804 0 0 0 0 0.109804 0 0 0 0 0.109804 0 0 0 0.1 0"/><feBlend in2="BackgroundImageFix" result="effect1_dropShadow_1429_47772"/><feBlend in="SourceGraphic" in2="effect1_dropShadow_1429_47772" result="shape"/></filter></defs></svg><svg fill="none" viewBox="0 0 24 24" id="css--lock" xmlns="http://www.w3.org/2000/svg"><path fill-rule="evenodd" clip-rule="evenodd" d="M12.011 3c1.057-.012 2.09.309 2.833.857C15.573 4.394 16 5.121 16 6a1 1 0 102 0c0-1.621-.823-2.908-1.969-3.753C14.901 1.414 13.433.984 11.989 1 8.726 1.036 6 3.407 6 7h1-1v3H5a3 3 0 00-3 3v7a3 3 0 003 3h14a3 3 0 003-3v-7a3 3 0 00-3-3H8V7H7h1c0-2.407 1.751-3.975 4.011-4zM4 13a1 1 0 011-1h14a1 1 0 011 1v7a1 1 0 01-1 1H5a1 1 0 01-1-1v-7z" fill="#354052"/></svg><svg fill="none" viewBox="0 0 32 33" id="css--logo" xmlns="http://www.w3.org/2000/svg"><path fill-rule="evenodd" clip-rule="evenodd" d="M30.209 23.365A15.93 15.93 0 0032 16.002c0-3.002-.826-5.81-2.264-8.21l-.065.225c-.317 1.055-.823 2.226-1.65 3.155 1.052 1.703 2.295 4.389 2.295 8.274 0 .547-.265 1.057-.707 1.372.27.748.481 1.584.6 2.547zm-2.314 3.338a1.678 1.678 0 01-.198-.114l-.897-.598c-.417 1.348-1.3 2.647-2.632 3.771a16.073 16.073 0 003.727-3.06zm-4.678 3.582a1.684 1.684 0 01-2.011-1.652c0-.27-.01-.53-.026-.78l-.042.057c-.929 1.259-2.554 2.407-5.138 2.407s-4.21-1.148-5.138-2.407a5.315 5.315 0 01-.042-.058c-.017.25-.026.51-.026.781a1.684 1.684 0 01-2.011 1.652A15.932 15.932 0 0016 32.001c2.597 0 5.049-.618 7.217-1.716zm-15.385-.523C6.5 28.638 5.617 27.34 5.2 25.992l-.897.597c-.064.043-.13.08-.198.114a16.074 16.074 0 003.727 3.06zm-6.04-6.397A15.93 15.93 0 010 16.002c0-3.002.826-5.81 2.264-8.21l.065.225c.317 1.055.823 2.226 1.65 3.155-1.052 1.703-2.295 4.389-2.295 8.274 0 .547.265 1.057.707 1.372-.27.748-.481 1.584-.6 2.547zm5.45-20.756l3.558.896.055-.014c1.512-.392 3.328-.464 5.145.3 1.817-.764 3.633-.692 5.145-.3l.055.014 3.558-.896A15.925 15.925 0 0016 .002c-3.233 0-6.242.958-8.758 2.607z" fill="#1F8EFA"/><path d="M3.11 3.038a.421.421 0 01.361-.076l7.35 1.85c.115-.034.232-.068.35-.098 1.457-.378 3.167-.399 4.829.473 1.662-.872 3.372-.85 4.828-.473.119.03.236.064.352.099l7.349-1.851a.421.421 0 01.524.408c0 1.176-.147 2.798-.592 4.284-.391 1.303-1.037 2.581-2.093 3.309 1.026 1.467 2.685 4.154 2.685 8.484a.42.42 0 01-.61.376l-.928-.464c.843 1.422 1.538 3.117 1.538 5.83a.42.42 0 01-.655.35L25.8 23.806c.139 1.691-.667 3.57-2.647 5.155a.421.421 0 01-.684-.329c0-1.686-.32-3.047-.713-4.084a3.276 3.276 0 01-.828.887 4.932 4.932 0 01-.807 1.724c-.708.961-1.968 1.894-4.121 1.894-2.153 0-3.413-.933-4.121-1.893a4.934 4.934 0 01-.807-1.725 3.284 3.284 0 01-.828-.887c-.394 1.037-.713 2.398-.713 4.084a.421.421 0 01-.684.329c-1.98-1.584-2.786-3.464-2.647-5.155l-2.598 1.731a.42.42 0 01-.655-.35c0-2.712.695-4.407 1.538-5.83l-.928.465a.421.421 0 01-.61-.377c0-4.33 1.659-7.016 2.685-8.483-1.056-.728-1.702-2.006-2.093-3.31-.445-1.485-.592-3.107-.592-4.283 0-.13.06-.252.163-.332z" fill="url(#aspaint0_linear_1446_48048)"/><path d="M10.832 5.25L3.368 3.37c0 2.297.575 6.316 2.871 7.464-.957 1.34-2.87 4.02-2.87 8.613l2.296-1.149c-1.148 1.723-2.297 3.445-2.297 6.89l3.445-2.296c-.574 1.722 0 3.904 2.297 5.741 0-2.297.574-4.02 1.148-5.167.148.74.601 1.327 1.192 1.722M16 22.892s0-1.838-2.297-2.297V17.15l-3.445-2.297M16 22.892s0-1.838 2.297-2.297V17.15l3.445-2.297M16 22.892c0 2.983 2.847 3.435 4.55 2.296M16 22.892c0 2.983-2.848 3.435-4.55 2.296M7.962 6.815C9.302 5.667 12.785 3.829 16 5.667c3.215-1.838 6.699 0 8.038 1.148m-2.87-1.565l7.463-1.88c0 2.297-.573 6.316-2.87 7.464.957 1.34 2.87 4.02 2.87 8.613l-2.296-1.149c1.148 1.723 2.296 3.445 2.297 6.89l-3.445-2.296c.574 1.722 0 3.904-2.297 5.741 0-2.297-.574-4.02-1.148-5.167-.148.74-.601 1.327-1.192 1.722m0 0s-.53 3.445-4.55 3.445-4.55-3.445-4.55-3.445m7.995-14.327A9.855 9.855 0 0016 10.26c-1.48 0-2.654.305-3.445.6" stroke="#1F8EFA" stroke-linecap="round" stroke-linejoin="round"/><defs><linearGradient id="aspaint0_linear_1446_48048" x1="16" y1="2.949" x2="16" y2="29.054" gradientUnits="userSpaceOnUse"><stop stop-color="#EFF3F6"/><stop offset="1" stop-color="#DFE3E9"/></linearGradient></defs></svg><svg fill="none" viewBox="0 0 16 16" id="css--logout" xmlns="http://www.w3.org/2000/svg"><path fill-rule="evenodd" clip-rule="evenodd" d="M3.333 3A.333.333 0 003 3.333v9.334a.333.333 0 00.333.333H6a1 1 0 110 2H3.333A2.333 2.333 0 011 12.667V3.333A2.333 2.333 0 013.333 1H6a1 1 0 010 2H3.333zm6.627.96a1 1 0 011.414 0l3.333 3.333a1 1 0 010 1.414l-3.333 3.333a1 1 0 11-1.414-1.414L11.586 9H6a1 1 0 010-2h5.586L9.96 5.374a1 1 0 010-1.414z" fill="#7F8FA4"/></svg><svg fill="none" viewBox="0 0 21 21" id="css--longArrow" xmlns="http://www.w3.org/2000/svg"><path d="M17.997 10.002a.846.846 0 00-.841-.852H.843a.846.846 0 00-.841.852c0 .47.376.852.84.852h16.314c.464 0 .84-.381.84-.852z" fill="#516173"/><path d="M16.483 13.922a.824.824 0 01-1.176 0 .852.852 0 010-1.193l2.69-2.727-2.69-2.727a.852.852 0 010-1.193.824.824 0 011.176 0L19.756 9.4a.86.86 0 010 1.206l-3.273 3.317z" fill="#516173"/></svg><svg fill="none" viewBox="0 0 24 24" id="css--mail" xmlns="http://www.w3.org/2000/svg"><path fill-rule="evenodd" clip-rule="evenodd" d="M3 6c0-.548.452-1 1-1h16c.548 0 1 .452 1 1a.995.995 0 00-.555.168L12 11.798l-8.445-5.63A.995.995 0 003 6zm0 2.202V18c0 .548.452 1 1 1h16c.548 0 1-.452 1-1V8.202l-8.445 5.63a1 1 0 01-1.11 0L3 8.202zM4 3C2.348 3 1 4.348 1 6v12c0 1.652 1.348 3 3 3h16c1.652 0 3-1.348 3-3V6c0-1.652-1.348-3-3-3H4z" fill="#7F8FA4"/></svg><svg fill="none" viewBox="0 0 22 22" id="css--message" xmlns="http://www.w3.org/2000/svg"><path fill-rule="evenodd" clip-rule="evenodd" d="M14.838 2.546c-.92-.375-1.957-.55-3.28-.546-3.227.009-5.654 1.532-7.184 4.007a8.445 8.445 0 00-1.263 4.438v.002a8.31 8.31 0 00.893 3.769 1 1 0 01.056.767l-1.48 4.436 4.436-1.479a1 1 0 01.767.056c1.178.595 2.244.893 3.772.893.948 0 1.662-.083 2.32-.27.66-.188 1.31-.494 2.117-.992.807-.5 1.371-.945 1.833-1.451.462-.506.855-1.108 1.28-1.957.688-1.376.89-2.236.894-3.777.003-1.323-.172-2.36-.547-3.28-.374-.918-.974-1.778-1.905-2.71-.932-.931-1.792-1.531-2.71-1.906zm.756-1.852c1.224.5 2.3 1.277 3.368 2.344 1.067 1.068 1.843 2.144 2.343 3.369.5 1.224.698 2.535.695 4.04-.004 1.848-.278 3.013-1.106 4.667-.477.954-.967 1.727-1.591 2.41-.625.684-1.35 1.242-2.258 1.803-.907.561-1.73.962-2.62 1.215-.892.254-1.803.347-2.87.347-1.696 0-2.986-.316-4.292-.923L1.316 21.95a1 1 0 01-1.265-1.265l1.984-5.95a10.311 10.311 0 01-.924-4.291 10.44 10.44 0 011.562-5.488C4.546 1.925 7.597.01 11.553 0c1.505-.004 2.816.195 4.04.694z" fill="#7F8FA4"/></svg><svg fill="none" viewBox="0 0 20 20" id="css--moreHorizontal" xmlns="http://www.w3.org/2000/svg"><g clip-path="url(#axclip0_1441_22699)"><path fill-rule="evenodd" clip-rule="evenodd" d="M4.333 10A.167.167 0 114 10a.167.167 0 01.333 0zm-.166-1.833a1.833 1.833 0 100 3.666 1.833 1.833 0 000-3.666zm5.833 2a.167.167 0 100-.334.167.167 0 000 .334zM8.167 10a1.833 1.833 0 113.666 0 1.833 1.833 0 01-3.666 0zm7.666.167a.167.167 0 100-.334.167.167 0 000 .334zM14 10a1.833 1.833 0 113.667 0A1.833 1.833 0 0114 10z" fill="#1F8EFA"/></g><defs><clipPath id="axclip0_1441_22699"><rect width="20" height="20" rx="4" fill="#fff"/></clipPath></defs></svg><svg fill="none" viewBox="0 0 32 32" id="css--my-deals" xmlns="http://www.w3.org/2000/svg"><path fill-rule="evenodd" clip-rule="evenodd" d="M6.667 1.667A3.667 3.667 0 003 5.333v21.334a3.666 3.666 0 003.667 3.666H20a1 1 0 100-2H6.667A1.667 1.667 0 015 26.667V5.333a1.667 1.667 0 011.667-1.666h16c.92 0 1.666.746 1.666 1.666v.471a3.667 3.667 0 00-2.666 3.528v14.222a1 1 0 00.142.515l2.667 4.444a1 1 0 001.715 0l2.667-4.444a1 1 0 00.142-.515V9.332a3.667 3.667 0 00-2.667-3.528v-.47a3.667 3.667 0 00-3.666-3.667h-16zm18.626 5.999a1.004 1.004 0 00.08 0A1.666 1.666 0 0127 9.332v13.945l-1.667 2.778-1.666-2.778V9.332a1.667 1.667 0 011.626-1.666zm-16.96 11a1 1 0 011-1h8a1 1 0 110 2h-8a1 1 0 01-1-1zm1-6.334a1 1 0 100 2H12a1 1 0 100-2H9.333zm-1-4.333a1 1 0 011-1h8a1 1 0 110 2h-8a1 1 0 01-1-1zm1 15.001a1 1 0 100 2h5.334a1 1 0 000-2H9.333z" fill="#fff"/></svg><svg fill="none" viewBox="0 0 32 32" id="css--new-message" xmlns="http://www.w3.org/2000/svg"><path fill-rule="evenodd" clip-rule="evenodd" d="M21.243 4.42c-1.276-.521-2.706-.758-4.5-.753-4.425.011-7.764 2.107-9.862 5.5a11.593 11.593 0 00-1.733 6.093v.002a11.414 11.414 0 001.226 5.176 1 1 0 01.056.767l-2.182 6.547 6.547-2.182a1 1 0 01.767.056c1.615.815 3.086 1.225 5.179 1.226 1.284 0 2.269-.112 3.186-.373.917-.261 1.814-.684 2.906-1.36s1.871-1.29 2.514-1.993c.643-.704 1.184-1.536 1.759-2.685.941-1.88 1.223-3.078 1.227-5.184.004-1.794-.233-3.224-.753-4.5-.52-1.275-1.35-2.458-2.614-3.723C23.7 5.77 22.518 4.94 21.243 4.42zm.756-1.852c1.582.646 2.98 1.651 4.38 3.052 1.402 1.4 2.407 2.8 3.052 4.381.646 1.582.906 3.285.902 5.26-.005 2.413-.358 3.916-1.439 6.075-.627 1.255-1.264 2.257-2.07 3.139-.806.882-1.746 1.607-2.939 2.345-1.193.737-2.262 1.256-3.41 1.583-1.15.327-2.331.45-3.735.449-2.261 0-3.96-.43-5.701-1.255l-8.056 2.685a1 1 0 01-1.265-1.265l2.686-8.058a13.414 13.414 0 01-1.256-5.701A13.593 13.593 0 015.18 8.115c2.442-3.948 6.405-6.435 11.558-6.448 1.976-.005 3.68.255 5.26.9z" fill="#fff"/></svg><svg fill="none" viewBox="0 0 32 32" id="css--new-notification" xmlns="http://www.w3.org/2000/svg"><path fill-rule="evenodd" clip-rule="evenodd" d="M16 1.667a9 9 0 00-9 9c0 4.519-.967 7.351-1.878 9.02-.457.838-.905 1.394-1.223 1.73a4.354 4.354 0 01-.451.415l-.012.01.001-.002.004-.002.002-.002.003.003L4 23.666h24l.553-1.829.003-.003.001.001.002.002.003.002.002.001-.012-.009a4.357 4.357 0 01-.451-.416c-.318-.335-.767-.89-1.223-1.728-.911-1.67-1.878-4.502-1.878-9.021a9 9 0 00-9-9zm9.747 20H6.253c.205-.298.415-.638.625-1.022C7.967 18.65 9 15.481 9 10.667a7 7 0 1114 0c0 4.814 1.033 7.982 2.122 9.978.21.384.42.724.625 1.022zm-11.189 5.831a1 1 0 10-1.73 1.004 3.668 3.668 0 006.344 0 1 1 0 00-1.73-1.004 1.667 1.667 0 01-2.884 0z" fill="#fff"/></svg><svg fill="none" viewBox="0 0 32 32" id="css--paperPencil" xmlns="http://www.w3.org/2000/svg"><path fill-rule="evenodd" clip-rule="evenodd" d="M6.667 1.667A3.667 3.667 0 003 5.333v21.334a3.666 3.666 0 003.667 3.666H20a1 1 0 100-2H6.667A1.667 1.667 0 015 26.667V5.333a1.667 1.667 0 011.667-1.666h16c.92 0 1.666.746 1.666 1.666v.471a3.667 3.667 0 00-2.666 3.528v14.222a1 1 0 00.142.515l2.667 4.444a1 1 0 001.715 0l2.667-4.444a1 1 0 00.142-.515V9.332a3.667 3.667 0 00-2.667-3.528v-.47a3.667 3.667 0 00-3.666-3.667h-16zm18.626 5.999a1.004 1.004 0 00.08 0A1.666 1.666 0 0127 9.332v13.945l-1.667 2.778-1.666-2.778V9.332a1.667 1.667 0 011.626-1.666zm-16.96 11a1 1 0 011-1h8a1 1 0 110 2h-8a1 1 0 01-1-1zm1-6.334a1 1 0 100 2H12a1 1 0 100-2H9.333zm-1-4.333a1 1 0 011-1h8a1 1 0 110 2h-8a1 1 0 01-1-1zm1 15.001a1 1 0 100 2h5.334a1 1 0 100-2H9.333z" fill="#3A9EFF"/></svg><svg fill="none" viewBox="0 0 24 24" id="css--playButtonBlue" xmlns="http://www.w3.org/2000/svg"><rect width="24" height="24" rx="12" fill="#1F8EFA"/><g filter="url(#bcfilter0_d_1441_47825)"><path fill-rule="evenodd" clip-rule="evenodd" d="M7.667 7.832c0-1.583 1.75-2.538 3.081-1.683l6.484 4.169a2 2 0 010 3.364l-6.484 4.169c-1.33.855-3.081-.1-3.081-1.683V7.832zM16.15 12L9.667 7.832v8.336L16.15 12z" fill="#fff"/></g><defs><filter id="bcfilter0_d_1441_47825" x="4" y="4" width="16" height="17" filterUnits="userSpaceOnUse" color-interpolation-filters="sRGB"><feFlood flood-opacity="0" result="BackgroundImageFix"/><feColorMatrix in="SourceAlpha" values="0 0 0 0 0 0 0 0 0 0 0 0 0 0 0 0 0 0 127 0" result="hardAlpha"/><feOffset dy="1"/><feColorMatrix values="0 0 0 0 0.109804 0 0 0 0 0.109804 0 0 0 0 0.109804 0 0 0 0.1 0"/><feBlend in2="BackgroundImageFix" result="effect1_dropShadow_1441_47825"/><feBlend in="SourceGraphic" in2="effect1_dropShadow_1441_47825" result="shape"/></filter></defs></svg><svg fill="none" viewBox="0 0 22 22" id="css--playCircle" xmlns="http://www.w3.org/2000/svg"><path fill-rule="evenodd" clip-rule="evenodd" d="M2 11a9 9 0 1118 0 9 9 0 01-18 0zm9-11C4.925 0 0 4.925 0 11s4.925 11 11 11 11-4.925 11-11S17.075 0 11 0zM9.555 6.168A1 1 0 008 7v8a1 1 0 001.555.832l6-4a1 1 0 000-1.664l-6-4zM13.197 11L10 13.132V8.869L13.197 11z" fill="#7F8FA4"/></svg><svg fill="none" viewBox="0 0 16 16" id="css--plusCircle" xmlns="http://www.w3.org/2000/svg"><path fill-rule="evenodd" clip-rule="evenodd" d="M8 2.333a5.667 5.667 0 100 11.334A5.667 5.667 0 008 2.333zM.333 8a7.667 7.667 0 1115.334 0A7.667 7.667 0 01.333 8zM8 4.333a1 1 0 011 1V7h1.667a1 1 0 110 2H9v1.667a1 1 0 11-2 0V9H5.333a1 1 0 110-2H7V5.333a1 1 0 011-1z" fill="#1F8EFA"/></svg><svg fill="none" viewBox="0 0 16 17" id="css--red-arrows-two" xmlns="http://www.w3.org/2000/svg"><path fill-rule="evenodd" clip-rule="evenodd" d="M7.684 4.052a1 1 0 01.632 0l6 2a1 1 0 11-.632 1.897L8 6.055 2.316 7.949a1 1 0 01-.632-1.897l6-2zm-6 6l6-2a1 1 0 01.632 0l6 2a1 1 0 01-.632 1.897L8 10.055l-5.684 1.894a1 1 0 11-.632-1.897z" fill="#FF3031"/></svg><svg fill="none" viewBox="0 0 16 18" id="css--refresh" xmlns="http://www.w3.org/2000/svg"><path fill-rule="evenodd" clip-rule="evenodd" d="M14.723 10.94a7 7 0 00-4.39-8.545 1 1 0 00-.667 1.885 5 5 0 011.845 8.273l-1.178 1.253v-1.475a1 1 0 10-2 0v4a1 1 0 001 1h4a1 1 0 100-2h-1.688l1.313-1.397a7 7 0 001.765-2.995zM6.667 6.663a1 1 0 001-1v-4a1 1 0 00-1.004-1H2.667a1 1 0 100 2h1.687L3.041 4.062A7 7 0 005.666 15.6a1 1 0 00.668-1.885 5 5 0 01-1.845-8.273l1.178-1.254v1.476a1 1 0 001 1z" fill="#1F8EFA"/></svg><svg fill="none" viewBox="0 0 20 22" id="css--reload-button" xmlns="http://www.w3.org/2000/svg"><path fill-rule="evenodd" clip-rule="evenodd" d="M18.163 13.356a8.5 8.5 0 00-5.33-10.375 1 1 0 10-.667 1.886 6.5 6.5 0 012.405 10.747l-1.904 2.027v-2.475a1 1 0 10-2 0v5a1 1 0 001 1h5a1 1 0 000-2h-2.689l2.04-2.171a8.5 8.5 0 002.145-3.639zm-9.83-5.523a1 1 0 001-1v-5a1 1 0 00-1.004-1H3.333a1 1 0 000 2H6.02l-2.038 2.17a8.5 8.5 0 003.184 14.014 1 1 0 00.668-1.886A6.5 6.5 0 015.429 6.384l1.904-2.028v2.477a1 1 0 001 1z" fill="#516173"/></svg><svg fill="none" viewBox="0 0 20 21" id="css--search-icon" xmlns="http://www.w3.org/2000/svg"><path fill-rule="evenodd" clip-rule="evenodd" d="M3.5 9.168a5.667 5.667 0 119.756 3.923.997.997 0 00-.167.166 5.667 5.667 0 01-9.59-4.09zm10.335 6.082a7.667 7.667 0 111.414-1.414l2.958 2.958a1 1 0 01-1.414 1.414l-2.958-2.958z" fill="#7F8FA4"/></svg><svg fill="none" viewBox="0 0 18 18" id="css--settings" xmlns="http://www.w3.org/2000/svg"><path fill-rule="evenodd" clip-rule="evenodd" d="M11.294 2.503c-.549-2.45-4.04-2.45-4.588 0l.975.219-.975-.219-.03.134a.351.351 0 01-.531.22l-.536.844.536-.844-.116-.074C3.909 1.44 1.44 3.908 2.784 6.028l.074.116.753-.478-.753.478a.351.351 0 01-.22.53l-.134.03c-2.45.55-2.45 4.04 0 4.59l.134.03.213-.951-.213.95c.237.054.35.326.22.532l-.074.115C1.44 14.09 3.91 16.56 6.03 15.215l-.497-.784.497.784.116-.073a.351.351 0 01.53.22l.03.133.951-.212-.95.213c.548 2.449 4.04 2.449 4.588 0l.03-.134-.976-.219.976.219a.351.351 0 01.531-.22l.116.073c2.12 1.344 4.589-1.124 3.245-3.245l-.074-.115-.756.479.756-.48a.351.351 0 01.22-.53l.134-.03-.219-.976.22.976c2.449-.55 2.449-4.04 0-4.59l-.135-.03a.351.351 0 01-.22-.53l.074-.116-.845-.535.845.535c1.344-2.12-1.125-4.588-3.245-3.245l-.116.074.374.59-.374-.59a.351.351 0 01-.53-.22l-.03-.134-.976.219.975-.219zm-2.637.437a.332.332 0 01.12-.207A.376.376 0 019 2.666c.092 0 .17.028.222.067.044.033.094.088.12.207l.03.134a2.351 2.351 0 003.554 1.472l.116-.073c.103-.066.178-.07.232-.062.064.01.14.045.204.11.065.065.1.14.11.205.008.053.004.128-.061.231l-.074.116.823.522-.823-.522a2.351 2.351 0 001.472 3.554l.134.03c.119.026.175.077.207.12.039.052.067.13.067.222s-.028.17-.067.223c-.032.043-.088.093-.207.12l-.134.03.186.832-.186-.832a2.351 2.351 0 00-1.472 3.553l.074.116.844-.535-.844.535c.065.103.069.178.06.232a.376.376 0 01-.109.205.376.376 0 01-.204.11.334.334 0 01-.232-.062l-.116-.073a2.351 2.351 0 00-3.553 1.471l-.03.134.976.219-.976-.219c-.027.12-.077.175-.12.207a.376.376 0 01-.223.068.376.376 0 01-.222-.068c-.044-.032-.094-.088-.12-.207l-.03-.134a2.351 2.351 0 00-3.554-1.471l-.116.073c-.103.065-.178.07-.232.061a.376.376 0 01-.204-.11.376.376 0 01-.11-.204c-.008-.054-.004-.129.061-.232l.074-.116a2.351 2.351 0 00-1.472-3.553l-.134-.03c-.119-.027-.175-.077-.207-.12a.376.376 0 01-.067-.223c0-.092.028-.17.067-.222.032-.043.088-.094.207-.12l.134-.03a2.351 2.351 0 001.472-3.554l-.074-.116c-.065-.103-.069-.178-.061-.231a.376.376 0 01.11-.205.38.38 0 01.204-.11c.054-.008.13-.004.232.062l.535-.845-.535.845.116.073a2.351 2.351 0 003.553-1.472l.03-.134zM8 9a1 1 0 112 0 1 1 0 01-2 0zm1-3a3 3 0 100 6 3 3 0 000-6z" fill="#7F8FA4"/></svg><svg fill="none" viewBox="0 0 32 32" id="css--settings-icon-sidebar" xmlns="http://www.w3.org/2000/svg"><path d="M6 12c1.1 0 2 .9 2 2s-.9 2-2 2-2-.9-2-2 .9-2 2-2zm0-2c-2.2 0-4 1.8-4 4s1.8 4 4 4 4-1.8 4-4-1.8-4-4-4zm10 8c1.1 0 2 .9 2 2s-.9 2-2 2-2-.9-2-2 .9-2 2-2zm0-2c-2.2 0-4 1.8-4 4s1.8 4 4 4 4-1.8 4-4-1.8-4-4-4zm10-6c1.1 0 2 .9 2 2s-.9 2-2 2-2-.9-2-2 .9-2 2-2zm0-2c-2.2 0-4 1.8-4 4s1.8 4 4 4 4-1.8 4-4-1.8-4-4-4zM5 30v-8c0-.6.4-1 1-1s1 .4 1 1v8c0 .6-.4 1-1 1s-1-.4-1-1zm10-17V3c0-.6.4-1 1-1s1 .4 1 1v10c0 .6-.4 1-1 1s-1-.4-1-1zm10 16V19c0-.6.4-1 1-1s1 .4 1 1v10c0 .6-.4 1-1 1s-1-.4-1-1zm0-24V3c0-.6.4-1 1-1s1 .4 1 1v2c0 .6-.4 1-1 1s-1-.4-1-1zM5 7V3c0-.6.4-1 1-1s1 .4 1 1v4c0 .6-.4 1-1 1s-1-.4-1-1zm10 22v-2c0-.6.4-1 1-1s1 .4 1 1v2c0 .6-.4 1-1 1s-1-.4-1-1z" fill="#fff"/></svg><svg fill="none" viewBox="0 0 20 21" id="css--stretch-button" xmlns="http://www.w3.org/2000/svg"><path fill-rule="evenodd" clip-rule="evenodd" d="M12.5 1.502a1 1 0 100 2h2.586L10.96 7.628a1 1 0 101.414 1.414L16.5 4.916v2.586a1 1 0 102 0v-5a1 1 0 00-1-1h-5zM9.04 12.376a1 1 0 10-1.414-1.414L3.5 15.088v-2.586a1 1 0 10-2 0v5a1 1 0 001 1h5a1 1 0 100-2H4.914l4.126-4.126z" fill="#516173"/></svg><svg fill="none" viewBox="0 0 22 20" id="css--telegram" xmlns="http://www.w3.org/2000/svg"><path fill-rule="evenodd" clip-rule="evenodd" d="M21.64.231a1 1 0 01.336.986l-4 18a1 1 0 01-1.6.564l-4.302-3.441-3.367 3.367a1 1 0 01-1.673-.45l-1.871-7.015-4.534-1.814a1 1 0 01-.02-1.848l20-8.5a1 1 0 011.03.151zM7.172 12.015l.839 3.145.524-1.923a1 1 0 01.234-.42l2.993-3.206-4.59 2.404zm2.784 3.615l1.337-1.337a1 1 0 011.332-.074l3.747 2.998 3.23-14.536-15.98 6.791 2.322.928 10.092-5.286a1 1 0 011.195 1.568l-6.831 7.32-.444 1.628z" fill="#fff"/></svg><svg fill="none" viewBox="0 0 16 16" id="css--trash" xmlns="http://www.w3.org/2000/svg"><path fill-rule="evenodd" clip-rule="evenodd" d="M6.431 2.431a.333.333 0 01.236-.098h2.666a.333.333 0 01.334.334V3H6.333v-.333a.33.33 0 01.098-.236zM4.333 3v-.333A2.333 2.333 0 016.667.333h2.666a2.333 2.333 0 012.334 2.334V3H14a1 1 0 110 2h-.333v8.333a2.333 2.333 0 01-2.334 2.334H4.667a2.334 2.334 0 01-2.334-2.334V5H2a1 1 0 110-2h2.333zm0 2v8.333a.333.333 0 00.334.334h6.666a.333.333 0 00.334-.334V5H4.333z" fill="#7F8FA4"/></svg><svg fill="none" viewBox="0 0 16 16" id="css--user" xmlns="http://www.w3.org/2000/svg"><path fill-rule="evenodd" clip-rule="evenodd" d="M6.333 4.667a1.667 1.667 0 113.334 0 1.667 1.667 0 01-3.334 0zM8 1a3.667 3.667 0 100 7.333A3.667 3.667 0 008 1zM6.315 9a3.667 3.667 0 00-3.28 2.026l-1.263 2.526a1 1 0 001.79.895l1.262-2.526c.282-.565.86-.922 1.49-.922h3.371c.631 0 1.209.357 1.49.922l1.264 2.526a1 1 0 001.789-.895l-1.263-2.526A3.667 3.667 0 009.685 9h-3.37z" fill="#7F8FA4"/></svg><svg fill="none" viewBox="0 0 24 25" id="css--vk" xmlns="http://www.w3.org/2000/svg"><g filter="url(#bpfilter0_d_1429_3924)"><path fill-rule="evenodd" clip-rule="evenodd" d="M8.084 6.553c0-.806.665-1.504 1.558-1.504h3.446c.408 0 .931.116 1.289.595.3.404.337.886.337 1.21v3.17c.553-.71 1.042-1.532 1.418-2.244a21.04 21.04 0 00.704-1.469l.008-.019.002-.003.003-.01.004-.008c.112-.258.3-.579.634-.832.348-.262.77-.39 1.237-.39h2.193c.457 0 1.073.114 1.451.656.352.502.276 1.061.18 1.4-.11.469-.389 1.04-.669 1.555-.305.561-.68 1.173-1.037 1.733a56.763 56.763 0 01-1.327 1.98c.026.03.057.063.094.1.1.104.222.223.364.363l.006.005.005.006c.275.268.622.609.91.947.474.534.908 1.046 1.253 1.513.334.451.643.937.793 1.407l.004.013.004.012c.14.483.162 1.118-.28 1.63-.41.476-1 .581-1.439.581h-2.192c-.357 0-.69-.075-1.008-.242a3.065 3.065 0 01-.74-.571 16.1 16.1 0 01-.525-.567l-.126-.14a24.259 24.259 0 00-.868-.92c-.48-.46-.822-.734-1.057-.897v1.485c0 .356-.053 1.023-.703 1.46-.492.33-1.165.393-1.862.393-2.72 0-5.55-1.632-7.504-4.435-1.401-1.964-2.302-3.7-2.857-5.039a14.444 14.444 0 01-.593-1.7C1.077 7.35 1 6.955 1 6.67c0-.265.047-.735.42-1.123.375-.392.884-.496 1.332-.496h2.192c.433 0 .904.099 1.3.463.343.317.513.737.626 1.063v.001c.512 1.491 1.199 2.883 1.835 3.888.086.136.17.262.25.38V8.72c-.032-.514-.17-.727-.272-.866a3.914 3.914 0 00-.12-.154l-.003-.003-.003-.004a3.79 3.79 0 01-.17-.224 1.586 1.586 0 01-.303-.916zm.854 5.67zm.841-.423l.01.006-.01-.005zm8.035-.484l.001-.002.005-.008.022-.03a30.885 30.885 0 00.384-.553c.25-.367.587-.868.931-1.407.345-.54.692-1.108.965-1.612.142-.26.25-.48.33-.655h-1.756a.401.401 0 00-.005.01l-.011.027a14.426 14.426 0 01-.199.45 23.03 23.03 0 01-.581 1.18c-.491.928-1.21 2.131-2.08 3.101l-.017.02-.018.018c-.455.458-.972.97-1.73.97-1.002 0-1.341-.984-1.341-1.627v-4.15h-2.177c.21.386.378.888.416 1.589l.002.027v3.255c0 .344-.018.796-.223 1.167-.13.232-.326.43-.591.55a1.43 1.43 0 01-.593.119c-.378 0-.685-.163-.875-.288a3.415 3.415 0 01-.577-.497c-.353-.37-.722-.868-1.081-1.435-.722-1.141-1.476-2.675-2.037-4.308a2.467 2.467 0 00-.067-.177H3.07c.015.061.032.129.052.202.1.366.264.86.512 1.46.497 1.198 1.325 2.804 2.64 4.647l.007.01c1.67 2.396 3.94 3.582 5.866 3.582.252 0 .434-.012.565-.028v-1.791c0-.183.009-.381.046-.572.037-.192.114-.44.297-.666.404-.501.991-.514 1.231-.514.748 0 1.559.427 2.877 1.697l.006.006.007.007a26.046 26.046 0 011.09 1.161c.183.202.316.35.439.473.148.15.22.196.25.213h.003c.009.006.022.013.078.013h1.811a6.294 6.294 0 00-.31-.455 20.627 20.627 0 00-1.146-1.38l-.008-.01-.008-.008c-.22-.26-.505-.542-.797-.827l-.054-.053c-.234-.23-.526-.515-.696-.746-.219-.285-.446-.68-.405-1.186.032-.404.241-.736.338-.89l.017-.028.017-.026.018-.025zM3 6.656zm-.33.398zM13.1 7.05h-.002zm1.617 4.198v-.003zm-2.012-4.54v.001z" fill="#fff"/></g><defs><filter id="bpfilter0_d_1429_3924" x="0" y="0" width="24" height="25" filterUnits="userSpaceOnUse" color-interpolation-filters="sRGB"><feFlood flood-opacity="0" result="BackgroundImageFix"/><feColorMatrix in="SourceAlpha" values="0 0 0 0 0 0 0 0 0 0 0 0 0 0 0 0 0 0 127 0" result="hardAlpha"/><feOffset dy="1"/><feColorMatrix values="0 0 0 0 0.109804 0 0 0 0 0.109804 0 0 0 0 0.109804 0 0 0 0.1 0"/><feBlend in2="BackgroundImageFix" result="effect1_dropShadow_1429_3924"/><feBlend in="SourceGraphic" in2="effect1_dropShadow_1429_3924" result="shape"/></filter></defs></svg><svg fill="none" viewBox="0 0 24 25" id="css--whitePlus" xmlns="http://www.w3.org/2000/svg"><path fill-rule="evenodd" clip-rule="evenodd" d="M13 5.002a1 1 0 10-2 0v6H5a1 1 0 100 2h6v6a1 1 0 102 0v-6h6a1 1 0 100-2h-6v-6z" fill="#fff"/></svg><svg fill="none" viewBox="0 0 20 21" id="css--yellow-arrow" xmlns="http://www.w3.org/2000/svg"><path fill-rule="evenodd" clip-rule="evenodd" d="M9.684 8.052a1 1 0 01.632 0l6 2a1 1 0 01-.632 1.897L10 10.055l-5.684 1.894a1 1 0 11-.632-1.897l6-2z" fill="#FD8900"/></svg><svg viewBox="0 0 20 21" fill="none" id="css--yellow-clock" xmlns="http://www.w3.org/2000/svg"><rect y=".002" width="20" height="20" rx="3" fill="url(#bspaint0_linear_1607_100477)"/><g filter="url(#bsfilter0_d_1607_100477)"><path fill-rule="evenodd" clip-rule="evenodd" d="M7 4.138c0-.961.76-1.804 1.775-1.804h2.45c1.015 0 1.775.843 1.775 1.804 0 .603-.271 1.038-.6 1.333.47.193.91.44 1.316.734l.599-.597-.234-.235a1 1 0 011.417-1.41l.939.942.938.943a1 1 0 01-1.417 1.41l-.232-.233-.596.595a6.333 6.333 0 11-7.533-2.147A1.75 1.75 0 017 4.138zm-1.333 7.196a4.333 4.333 0 118.666 0 4.333 4.333 0 01-8.666 0zM10 9.668a1.667 1.667 0 011.188 2.835 1 1 0 101.426 1.403A3.667 3.667 0 0010 7.668v2z" fill="#fff"/></g><defs><linearGradient id="bspaint0_linear_1607_100477" x1="10" y1="20.002" x2="10" y2=".001" gradientUnits="userSpaceOnUse"><stop stop-color="#FFB300"/><stop offset="1" stop-color="#FECF4B"/></linearGradient><filter id="bsfilter0_d_1607_100477" x="2" y="2.002" width="16" height="17" filterUnits="userSpaceOnUse" color-interpolation-filters="sRGB"><feFlood flood-opacity="0" result="BackgroundImageFix"/><feColorMatrix in="SourceAlpha" values="0 0 0 0 0 0 0 0 0 0 0 0 0 0 0 0 0 0 127 0" result="hardAlpha"/><feOffset dy="1"/><feColorMatrix values="0 0 0 0 0.109804 0 0 0 0 0.109804 0 0 0 0 0.109804 0 0 0 0.1 0"/><feBlend in2="BackgroundImageFix" result="effect1_dropShadow_1607_100477"/><feBlend in="SourceGraphic" in2="effect1_dropShadow_1607_100477" result="shape"/></filter></defs></svg><svg fill="none" viewBox="0 0 36 36" id="css--yellow-question" xmlns="http://www.w3.org/2000/svg"><rect width="36" height="36" rx="18" fill="#FFB300"/><g filter="url(#btfilter0_d_1560_41431)"><path fill-rule="evenodd" clip-rule="evenodd" d="M18 9.833a8.167 8.167 0 100 16.333 8.167 8.167 0 000-16.333zM7.833 17.999c0-5.615 4.552-10.166 10.167-10.166s10.167 4.551 10.167 10.166S23.615 28.166 18 28.166 7.833 23.614 7.833 17.999zm10.478-3.966c-1.215-.212-2.312.45-2.704 1.533a1 1 0 11-1.88-.681c.724-2 2.762-3.2 4.928-2.822.983.172 1.918.572 2.61 1.312.706.753 1.068 1.76 1.068 2.96 0 1.656-1.261 2.75-2.171 3.338a9.125 9.125 0 01-1.894.926l-.038.013-.012.004-.004.001h-.002c-.001.001-.001.001-.31-.95l.309.951a1 1 0 01-.618-1.902h.001l.298.918-.297-.919.02-.007.088-.031a7.132 7.132 0 001.371-.682c.806-.522 1.26-1.094 1.26-1.66 0-.781-.227-1.271-.528-1.593-.315-.336-.805-.588-1.495-.709zM18 22a1 1 0 000 2h.008a1 1 0 100-2H18z" fill="#fff"/></g><defs><filter id="btfilter0_d_1560_41431" x="7.833" y="7.833" width="20.333" height="21.333" filterUnits="userSpaceOnUse" color-interpolation-filters="sRGB"><feFlood flood-opacity="0" result="BackgroundImageFix"/><feColorMatrix in="SourceAlpha" values="0 0 0 0 0 0 0 0 0 0 0 0 0 0 0 0 0 0 127 0" result="hardAlpha"/><feOffset dy="1"/><feColorMatrix values="0 0 0 0 0.109804 0 0 0 0 0.109804 0 0 0 0 0.109804 0 0 0 0.1 0"/><feBlend in2="BackgroundImageFix" result="effect1_dropShadow_1560_41431"/><feBlend in="SourceGraphic" in2="effect1_dropShadow_1560_41431" result="shape"/></filter></defs></svg><svg fill="none" viewBox="0 0 24 25" id="css--youtube" xmlns="http://www.w3.org/2000/svg"><g filter="url(#bufilter0_d_1429_3931)"><path fill-rule="evenodd" clip-rule="evenodd" d="M12 4V3h-.08a96.464 96.464 0 00-1.033.007c-.676.007-1.596.022-2.572.05-.974.03-2.011.074-2.918.14-.88.064-1.722.154-2.255.297l-.014.004a3.584 3.584 0 00-1.684 1.005 3.584 3.584 0 00-.968 1.78A30 30 0 000 11.749a30 30 0 00.476 5.508 3.582 3.582 0 00.999 1.748 3.582 3.582 0 001.661.96l.006.001c.533.143 1.375.233 2.255.297.907.066 1.944.11 2.918.14a138.662 138.662 0 003.605.057H12v-1 1h.08a117.506 117.506 0 001.033-.007c.676-.008 1.596-.022 2.572-.05a70.541 70.541 0 002.918-.14c.88-.064 1.722-.154 2.255-.297l.014-.004a3.585 3.585 0 001.684-1.005 3.584 3.584 0 00.968-1.78c.323-1.79.482-3.606.476-5.426a29.997 29.997 0 00-.49-5.574 3.584 3.584 0 00-.954-1.714 3.584 3.584 0 00-1.719-1.014c-.526-.129-1.36-.211-2.24-.27-.905-.06-1.941-.1-2.915-.126A151.104 151.104 0 0012.08 3H12v1zm0 0v1h.295a146.465 146.465 0 013.333.052c.961.026 1.968.065 2.836.123.88.059 1.542.132 1.882.212.305.089.52.206.775.469.252.26.362.475.441.777a28 28 0 01.438 5.11v.01a28.002 28.002 0 01-.438 5.035c-.079.301-.19.517-.441.776a1.591 1.591 0 01-.786.472c-.329.086-.989.168-1.877.233-.867.063-1.872.105-2.833.134a136.735 136.735 0 01-3.55.057h-.37a140.377 140.377 0 01-3.33-.057 68.467 68.467 0 01-2.833-.134c-.892-.066-1.554-.147-1.881-.234a1.593 1.593 0 01-.78-.451 1.579 1.579 0 01-.446-.733A28 28 0 012 11.756v-.01a28 28 0 01.438-5.074c.079-.301.19-.517.441-.776.258-.266.475-.383.786-.472.329-.086.989-.168 1.877-.233a68.551 68.551 0 012.833-.134A136.043 136.043 0 0111.925 5h.073L12 4zm-1.756 3.61a1 1 0 00-1.494.87v6.54a1 1 0 001.494.87l5.75-3.27a1 1 0 000-1.74l-5.75-3.27zm3.233 4.14L10.75 13.3v-3.1l2.727 1.55z" fill="#fff"/></g><defs><filter id="bufilter0_d_1429_3931" x="-.001" y="0" width="24.001" height="25" filterUnits="userSpaceOnUse" color-interpolation-filters="sRGB"><feFlood flood-opacity="0" result="BackgroundImageFix"/><feColorMatrix in="SourceAlpha" values="0 0 0 0 0 0 0 0 0 0 0 0 0 0 0 0 0 0 127 0" result="hardAlpha"/><feOffset dy="1"/><feColorMatrix values="0 0 0 0 0.109804 0 0 0 0 0.109804 0 0 0 0 0.109804 0 0 0 0.1 0"/><feBlend in2="BackgroundImageFix" result="effect1_dropShadow_1429_3931"/><feBlend in="SourceGraphic" in2="effect1_dropShadow_1429_3931" result="shape"/></filter></defs></svg></svg>