<svg width="11" height="10" viewBox="0 0 11 10" fill="none" xmlns="http://www.w3.org/2000/svg">
<path fill-rule="evenodd" clip-rule="evenodd" d="M9.70906 1.7076C10.0996 1.31707 10.0996 0.683906 9.70906 0.293382C9.31854 -0.0971428 8.68537 -0.0971428 8.29485 0.293381L5.00195 3.58627L1.70906 0.293381C1.31854 -0.0971428 0.685371 -0.0971428 0.294846 0.293382C-0.095678 0.683906 -0.095678 1.31707 0.294846 1.7076L3.58774 5.00049L0.294846 8.29338C-0.095678 8.6839 -0.095678 9.31707 0.294846 9.70759C0.685371 10.0981 1.31854 10.0981 1.70906 9.70759L5.00195 6.4147L8.29485 9.70759C8.68537 10.0981 9.31854 10.0981 9.70906 9.70759C10.0996 9.31707 10.0996 8.6839 9.70906 8.29338L6.41617 5.00049L9.70906 1.7076Z" fill="#354052"/>
</svg>
