<svg width="20" height="21" viewBox="0 0 20 21" fill="none" xmlns="http://www.w3.org/2000/svg">
<rect y="0.00170898" width="20" height="20" rx="3" fill="url(#paint0_linear_1607_101491)"/>
<g filter="url(#filter0_d_1607_101491)">
<path fill-rule="evenodd" clip-rule="evenodd" d="M5.09763 5.09934C5.16014 5.03683 5.24493 5.00171 5.33333 5.00171H12.6667C13.219 5.00171 13.6667 4.55399 13.6667 4.00171C13.6667 3.44942 13.219 3.00171 12.6667 3.00171H5.33333C4.7145 3.00171 4.121 3.24754 3.68342 3.68513C3.24583 4.12271 3 4.7162 3 5.33504V14.6684C3 15.2872 3.24583 15.8807 3.68342 16.3183C4.121 16.7559 4.71449 17.0017 5.33333 17.0017H14.6667C15.2855 17.0017 15.879 16.7559 16.3166 16.3183C16.7542 15.8807 17 15.2872 17 14.6684V10.0017C17 9.44942 16.5523 9.00171 16 9.00171C15.4477 9.00171 15 9.44942 15 10.0017V14.6684C15 14.7568 14.9649 14.8416 14.9024 14.9041C14.8399 14.9666 14.7551 15.0017 14.6667 15.0017H5.33333C5.24493 15.0017 5.16014 14.9666 5.09763 14.9041C5.03512 14.8416 5 14.7568 5 14.6684V5.33504C5 5.24664 5.03512 5.16185 5.09763 5.09934ZM17.3738 5.37548C17.7643 4.98496 17.7643 4.35179 17.3738 3.96127C16.9832 3.57074 16.3501 3.57074 15.9596 3.96127L10 9.92083L8.70711 8.62794C8.31658 8.23741 7.68342 8.23741 7.29289 8.62794C6.90237 9.01846 6.90237 9.65162 7.29289 10.0421L9.29289 12.0421C9.68342 12.4327 10.3166 12.4327 10.7071 12.0421L17.3738 5.37548Z" fill="white"/>
</g>
<defs>
<filter id="filter0_d_1607_101491" x="2" y="2.00171" width="16" height="17" filterUnits="userSpaceOnUse" color-interpolation-filters="sRGB">
<feFlood flood-opacity="0" result="BackgroundImageFix"/>
<feColorMatrix in="SourceAlpha" type="matrix" values="0 0 0 0 0 0 0 0 0 0 0 0 0 0 0 0 0 0 127 0" result="hardAlpha"/>
<feOffset dy="1"/>
<feColorMatrix type="matrix" values="0 0 0 0 0.109804 0 0 0 0 0.109804 0 0 0 0 0.109804 0 0 0 0.1 0"/>
<feBlend mode="normal" in2="BackgroundImageFix" result="effect1_dropShadow_1607_101491"/>
<feBlend mode="normal" in="SourceGraphic" in2="effect1_dropShadow_1607_101491" result="shape"/>
</filter>
<linearGradient id="paint0_linear_1607_101491" x1="10" y1="0.00146484" x2="10" y2="20.0017" gradientUnits="userSpaceOnUse">
<stop stop-color="#3A9EFF"/>
<stop offset="1" stop-color="#1F8EFA"/>
</linearGradient>
</defs>
</svg>
