<svg width="20" height="20" viewBox="0 0 20 20" fill="none" xmlns="http://www.w3.org/2000/svg">
<path fill-rule="evenodd" clip-rule="evenodd" d="M17.7071 2.29289C17.5196 2.10536 17.2652 2 17 2H3C2.73478 2 2.48043 2.10536 2.29289 2.29289C2.10536 2.48043 2 2.73478 2 3V13C2 13.2652 2.10536 13.5196 2.29289 13.7071C2.48043 13.8946 2.73479 14 3 14H15C15.2652 14 15.5196 14.1054 15.7071 14.2929L18 16.5858V3C18 2.73478 17.8946 2.48043 17.7071 2.29289ZM17 0C17.7956 0 18.5587 0.31607 19.1213 0.87868C19.6839 1.44129 20 2.20435 20 3V19C20 19.4045 19.7564 19.7691 19.3827 19.9239C19.009 20.0787 18.5789 19.9931 18.2929 19.7071L14.5858 16H3C2.20435 16 1.44129 15.6839 0.878679 15.1213C0.316071 14.5587 0 13.7957 0 13V3C0 2.20435 0.316071 1.44129 0.878679 0.87868C1.44129 0.316071 2.20435 0 3 0H17ZM5.005 4.99899C4.45272 4.99899 4.005 5.44671 4.005 5.99899C4.005 6.55128 4.45272 6.99899 5.005 6.99899H13C13.5523 6.99899 14 6.55128 14 5.99899C14 5.44671 13.5523 4.99899 13 4.99899H5.005ZM5 8.99899C4.44772 8.99899 4 9.44671 4 9.99899C4 10.5513 4.44772 10.999 5 10.999H9.005C9.55729 10.999 10.005 10.5513 10.005 9.99899C10.005 9.44671 9.55729 8.99899 9.005 8.99899H5Z" fill="#7F8FA4"/>
</svg>
