<svg width="22" height="22" viewBox="0 0 22 22" fill="none" xmlns="http://www.w3.org/2000/svg">
<path fill-rule="evenodd" clip-rule="evenodd" d="M14.8377 2.54609C13.9188 2.17101 12.8808 1.99658 11.5582 2.00005C8.33061 2.00853 5.9042 3.53151 4.37354 6.00662C3.54887 7.34014 3.11174 8.87694 3.11113 10.4449L3.11113 10.4471C3.10772 11.7561 3.41355 13.0474 4.00373 14.2158C4.12394 14.4538 4.14413 14.73 4.05981 14.9829L2.58117 19.4189L7.01711 17.9402C7.27006 17.8559 7.5462 17.8761 7.78419 17.9963C8.96244 18.5914 10.0276 18.8885 11.5558 18.8889C12.504 18.8891 13.2181 18.8063 13.8767 18.6188C14.5354 18.4313 15.1864 18.1255 15.9934 17.6265C16.8 17.1276 17.364 16.6816 17.8258 16.1759C18.2877 15.67 18.6811 15.0678 19.1057 14.2192C19.7943 12.843 19.9967 11.9832 20 10.4424C20.0027 9.11945 19.8283 8.08119 19.4533 7.16222C19.0787 6.24419 18.4791 5.38421 17.5475 4.45255C16.6157 3.52077 15.7557 2.92083 14.8377 2.54609ZM15.5935 0.694431C16.8184 1.19445 17.8943 1.97092 18.9617 3.03834C20.0292 4.10588 20.8053 5.18177 21.3051 6.40663C21.8045 7.63054 22.0031 8.9422 22 10.4466C21.9961 12.2947 21.7222 13.4596 20.8943 15.1142C20.417 16.0679 19.9271 16.8408 19.3027 17.5245C18.6782 18.2084 17.9528 18.7663 17.0453 19.3275C16.1382 19.8885 15.3151 20.2888 14.4242 20.5424C13.5332 20.796 12.6225 20.8891 11.5553 20.8889C9.85914 20.8885 8.56888 20.5729 7.26338 19.9663L1.31625 21.9487C0.95692 22.0685 0.560753 21.9749 0.29292 21.7071C0.0250881 21.4393 -0.0684344 21.0431 0.0513438 20.6838L2.03462 14.734C1.42308 13.388 1.10743 11.9246 1.11114 10.443C1.11209 8.50408 1.65273 6.60373 2.67254 4.95468C4.54647 1.92449 7.59669 0.0104507 11.5529 5.77496e-05C13.0576 -0.00389517 14.3695 0.194764 15.5935 0.694431Z" fill="#7F8FA4"/>
</svg>
