<svg width="32" height="32" viewBox="0 0 32 32" fill="none" xmlns="http://www.w3.org/2000/svg">
<path fill-rule="evenodd" clip-rule="evenodd" d="M21.2428 4.41948C19.9668 3.89861 18.5371 3.66199 16.7433 3.6667C12.3184 3.67833 8.97927 5.77414 6.88117 9.1668C5.74905 10.9975 5.14896 13.1072 5.14813 15.2596L5.14813 15.2619C5.14344 17.0597 5.56349 18.8333 6.37406 20.438C6.49427 20.676 6.51446 20.9522 6.43014 21.2051L4.24779 27.7522L10.7948 25.5698C11.0478 25.4855 11.3239 25.5057 11.5619 25.6259C13.1765 26.4414 14.6479 26.8513 16.7409 26.8518C18.025 26.8521 19.0099 26.74 19.9268 26.479C20.8437 26.218 21.7405 25.7945 22.8331 25.1188C23.9254 24.4433 24.7043 23.8299 25.3472 23.1259C25.9902 22.4218 26.5307 21.5904 27.1056 20.4414C28.047 18.5601 28.3288 17.3629 28.3332 15.2572C28.337 13.463 28.1003 12.0331 27.5796 10.757C27.0593 9.48182 26.2305 8.29919 24.9656 7.03433C23.7006 5.76935 22.518 4.94001 21.2428 4.41948ZM21.9987 2.56782C23.5807 3.21363 24.9792 4.2195 26.3798 5.62012C27.7806 7.02087 28.7859 8.41939 29.4314 10.0014C30.0766 11.5825 30.3374 13.2858 30.3332 15.2614C30.3282 17.6743 29.9749 19.1767 28.8942 21.3364C28.2667 22.5905 27.6295 23.5926 26.8241 24.4746C26.0185 25.3566 25.0782 26.0819 23.8851 26.8198C22.6923 27.5574 21.6234 28.0755 20.4743 28.4026C19.3251 28.7297 18.1436 28.8522 16.7404 28.8518C14.4785 28.8513 12.7793 28.4229 11.0388 27.5967L2.98288 30.282C2.62355 30.4018 2.22738 30.3082 1.95955 30.0404C1.69171 29.7726 1.59819 29.3764 1.71797 29.0171L4.40401 20.9589C3.57266 19.1754 3.14315 17.229 3.14813 15.2578C3.14931 12.7343 3.85292 10.2611 5.18017 8.11487C7.62153 4.16712 11.5845 1.68025 16.7381 1.66671C18.714 1.66152 20.4175 1.92236 21.9987 2.56782Z" fill="white"/>
</svg>
