<svg width="22" height="22" viewBox="0 0 22 22" fill="none" xmlns="http://www.w3.org/2000/svg">
<path fill-rule="evenodd" clip-rule="evenodd" d="M2 11C2 6.02944 6.02944 2 11 2C15.9706 2 20 6.02944 20 11C20 15.9706 15.9706 20 11 20C6.02944 20 2 15.9706 2 11ZM11 0C4.92487 0 0 4.92487 0 11C0 17.0751 4.92487 22 11 22C17.0751 22 22 17.0751 22 11C22 4.92487 17.0751 0 11 0ZM9.5547 6.16795C9.24784 5.96338 8.8533 5.94431 8.52814 6.11833C8.20298 6.29234 8 6.6312 8 7V15C8 15.3688 8.20298 15.7077 8.52814 15.8817C8.8533 16.0557 9.24784 16.0366 9.5547 15.8321L15.5547 11.8321C15.8329 11.6466 16 11.3344 16 11C16 10.6656 15.8329 10.3534 15.5547 10.1679L9.5547 6.16795ZM13.1972 11L10 13.1315V8.86852L13.1972 11Z" fill="#7F8FA4"/>
</svg>
