<svg width="20" height="21" viewBox="0 0 20 21" fill="none" xmlns="http://www.w3.org/2000/svg">
<path fill-rule="evenodd" clip-rule="evenodd" d="M3.5 9.16789C3.5 6.03827 6.03705 3.50122 9.16667 3.50122C12.2963 3.50122 14.8333 6.03827 14.8333 9.16789C14.8333 10.6903 14.233 12.0725 13.2561 13.0907C13.2255 13.1148 13.1961 13.1409 13.1679 13.1691C13.1397 13.1973 13.1136 13.2267 13.0894 13.2573C12.0713 14.2342 10.6891 14.8346 9.16667 14.8346C6.03705 14.8346 3.5 12.2975 3.5 9.16789ZM13.8347 15.2501C12.5419 16.2438 10.9233 16.8346 9.16667 16.8346C4.93248 16.8346 1.5 13.4021 1.5 9.16789C1.5 4.9337 4.93248 1.50122 9.16667 1.50122C13.4008 1.50122 16.8333 4.9337 16.8333 9.16789C16.8333 10.9245 16.2426 12.5431 15.2489 13.8359L18.2071 16.7941C18.5976 17.1846 18.5976 17.8178 18.2071 18.2083C17.8166 18.5988 17.1834 18.5988 16.7929 18.2083L13.8347 15.2501Z" fill="#7F8FA4"/>
</svg>
