<svg width="22" height="20" viewBox="0 0 22 20" fill="none" xmlns="http://www.w3.org/2000/svg">
<path fill-rule="evenodd" clip-rule="evenodd" d="M21.6395 0.231159C21.9275 0.470727 22.0575 0.851195 21.9762 1.21691L17.9762 19.2169C17.9013 19.5539 17.6579 19.8285 17.3323 19.9432C17.0066 20.0579 16.6449 19.9965 16.3753 19.7809L12.0742 16.34L8.70711 19.7071C8.45433 19.9599 8.08585 20.0585 7.7406 19.9658C7.39536 19.873 7.12587 19.6031 7.03377 19.2576L5.16298 12.2422L0.62861 10.4285C0.252565 10.278 0.00438379 9.91565 5.74419e-05 9.51066C-0.00426884 9.10568 0.236115 8.73807 0.60886 8.57965L20.6089 0.0796518C20.9537 -0.066885 21.3514 -0.00840821 21.6395 0.231159ZM7.17224 12.0148L8.01085 15.1596L8.53524 13.2369C8.57795 13.0802 8.65817 12.9364 8.76895 12.8177L11.7623 9.61054L7.17224 12.0148ZM9.95555 15.6302L11.2929 14.2929C11.6532 13.9326 12.2268 13.9008 12.6247 14.2191L16.3719 17.2168L19.6021 2.68064L3.62254 9.47197L5.94387 10.4005L16.036 5.11415C16.4678 4.88795 16.9999 5.00611 17.2954 5.39385C17.5909 5.78159 17.5637 6.32591 17.2311 6.6823L10.3997 14.0016L9.95555 15.6302Z" fill="white"/>
</svg>
