<svg width="36" height="36" viewBox="0 0 36 36" fill="none" xmlns="http://www.w3.org/2000/svg">
<rect width="36" height="36" rx="18" fill="#FFB300"/>
<g filter="url(#filter0_d_1560_41431)">
<path fill-rule="evenodd" clip-rule="evenodd" d="M18 9.83252C13.4897 9.83252 9.83337 13.4889 9.83337 17.9992C9.83337 22.5095 13.4897 26.1659 18 26.1659C22.5104 26.1659 26.1667 22.5095 26.1667 17.9992C26.1667 13.4889 22.5104 9.83252 18 9.83252ZM7.83337 17.9992C7.83337 12.3843 12.3851 7.83252 18 7.83252C23.6149 7.83252 28.1667 12.3843 28.1667 17.9992C28.1667 23.6141 23.6149 28.1659 18 28.1659C12.3851 28.1659 7.83337 23.6141 7.83337 17.9992ZM18.3107 14.033C17.096 13.8208 15.9993 14.483 15.6069 15.5662C15.4188 16.0854 14.8453 16.3539 14.3261 16.1657C13.8068 15.9776 13.5384 15.4042 13.7265 14.8849C14.4512 12.8846 16.4891 11.6845 18.6549 12.0629C19.6385 12.2347 20.5734 12.6352 21.2658 13.3746C21.9711 14.1278 22.3334 15.1355 22.3334 16.3358C22.3334 17.9909 21.0717 19.0843 20.1615 19.6734C19.6723 19.9901 19.1905 20.2233 18.8351 20.3766C18.6559 20.454 18.5053 20.5125 18.3972 20.5525C18.343 20.5725 18.2993 20.588 18.2677 20.5989L18.2296 20.6119L18.2177 20.6158L18.2136 20.6172L18.212 20.6177L18.2113 20.6179C18.211 20.618 18.2108 20.6181 17.9028 19.6667L18.2108 20.6181C17.6853 20.7881 17.1215 20.5 16.9514 19.9746C16.7816 19.4497 17.0688 18.8866 17.5931 18.7158L17.594 18.7156L17.5944 18.7154C17.5947 18.7153 17.5949 18.7153 17.8923 19.634L17.5949 18.7153L17.5958 18.7149L17.615 18.7084C17.6337 18.702 17.6637 18.6914 17.7033 18.6767C17.7828 18.6473 17.9002 18.6018 18.0426 18.5403C18.3305 18.4161 18.7063 18.233 19.0747 17.9945C19.8798 17.4733 20.3334 16.9013 20.3334 16.3358C20.3334 15.5536 20.1074 15.0636 19.8059 14.7416C19.4915 14.4059 19.0012 14.1536 18.3107 14.033ZM18 22C17.4478 22 17 22.4477 17 23C17 23.5523 17.4478 24 18 24H18.0084C18.5607 24 19.0084 23.5523 19.0084 23C19.0084 22.4477 18.5607 22 18.0084 22H18Z" fill="white"/>
</g>
<defs>
<filter id="filter0_d_1560_41431" x="7.83337" y="7.83252" width="20.3334" height="21.3333" filterUnits="userSpaceOnUse" color-interpolation-filters="sRGB">
<feFlood flood-opacity="0" result="BackgroundImageFix"/>
<feColorMatrix in="SourceAlpha" type="matrix" values="0 0 0 0 0 0 0 0 0 0 0 0 0 0 0 0 0 0 127 0" result="hardAlpha"/>
<feOffset dy="1"/>
<feColorMatrix type="matrix" values="0 0 0 0 0.109804 0 0 0 0 0.109804 0 0 0 0 0.109804 0 0 0 0.1 0"/>
<feBlend mode="normal" in2="BackgroundImageFix" result="effect1_dropShadow_1560_41431"/>
<feBlend mode="normal" in="SourceGraphic" in2="effect1_dropShadow_1560_41431" result="shape"/>
</filter>
</defs>
</svg>
